#!OML:ASF F:\VICON\USERDATA\INSTALL\rory3\rory3.ASF
:FULLY-SPECIFIED
:DEGREES
286
root 8.60387 18.181 35.5191 151.415 -105.785 -146.214
lowerback 33.4039 1.31377 -1.19694
upperback 7.80198 0.837427 2.68642
thorax -8.54755 0.0941066 3.21451
lowerneck -10.7376 -3.1296 -3.40826
upperneck 2.36634 -3.55662 -5.62987
head 2.58716 -2.06835 -1.43132
rclavicle 3.18055e-014 2.22639e-014
rhumerus -26.7524 -29.8056 -50.3159
rradius 82.778
rwrist -17.7716
rhand -7.96856 3.44924
rfingers 7.12502
rthumb 17.9391 -25.7434
lclavicle 3.18055e-014 2.22639e-014
lhumerus -42.8001 5.96181 76.7932
lradius 60.4011
lwrist 22.0502
lhand -15.3873 52.0712
lfingers 7.12502
lthumb 10.7912 81.774
rfemur -27.5124 -7.80664 20.3673
rtibia 53.6255
rfoot -15.7191 -2.33577
rtoes 15.1984
lfemur -29.3992 1.2519 -19.1099
ltibia 45.5886
lfoot -8.9806 -1.02305
ltoes -25.5532
287
root 8.65058 18.1337 35.7151 150.921 -106.017 -145.984
lowerback 33.8479 1.10027 -0.88706
upperback 7.67975 0.649784 2.44599
thorax -8.82814 0.00838512 2.8639
lowerneck -10.7967 -2.99175 -3.20985
upperneck 2.75832 -3.35388 -5.94579
head 2.72807 -1.98808 -1.56897
rclavicle -6.36111e-015 -4.77083e-015
rhumerus -26.2937 -28.8842 -51.5335
rradius 84.8206
rwrist -16.226
rhand -8.3609 3.04435
rfingers 7.12502
rthumb 17.5616 -26.1825
lclavicle -6.36111e-015 -4.77083e-015
lhumerus -42.8505 6.32858 76.5865
lradius 61.1857
lwrist 21.232
lhand -14.4218 51.3452
lfingers 7.12502
lthumb 11.7224 80.9972
rfemur -26.666 -5.78192 19.648
rtibia 53.2567
rfoot -17.4873 -3.45827
rtoes 18.4799
lfemur -29.0098 0.747348 -18.2546
ltibia 45.3051
lfoot -9.0012 0.624422
ltoes -24.0145
288
root 8.68528 18.0563 35.8857 151.761 -105.64 -147.371
lowerback 34.4741 1.07392 -0.353747
upperback 7.5964 0.788545 2.42914
thorax -9.15301 0.0625718 2.51083
lowerneck -10.7945 -2.86635 -3.19497
upperneck 3.17108 -3.1527 -6.04661
head 2.8716 -1.90175 -1.6031
rclavicle 6.36111e-015 3.18055e-015
rhumerus -26.0626 -28.2487 -52.9843
rradius 86.8628
rwrist -14.2567
rhand -9.40111 2.92154
rfingers 7.12502
rthumb 16.5603 -26.3918
lclavicle 6.36111e-015 3.18055e-015
lhumerus -42.9776 6.58855 76.357
lradius 62.0745
lwrist 20.5474
lhand -14.0024 50.7129
lfingers 7.12502
lthumb 12.1268 80.3415
rfemur -25.953 -6.18003 19.752
rtibia 52.9499
rfoot -18.4563 -3.17299
rtoes 18.525
lfemur -28.6135 0.739697 -16.572
ltibia 45.1827
lfoot -8.46581 2.16923
ltoes -27.5716
289
root 8.71984 17.976 36.065 151.93 -105.469 -147.955
lowerback 34.9441 1.00022 -0.00915667
upperback 7.54537 0.802027 2.34949
thorax -9.37593 0.0607131 2.23859
lowerneck -10.9233 -2.75883 -3.03549
upperneck 3.61047 -2.97969 -6.29529
head 3.04646 -1.83744 -1.71762
rclavicle 7.15625e-015 -3.65764e-014
rhumerus -25.5868 -27.3471 -54.3891
rradius 88.6425
rwrist -12.3185
rhand -10.8219 2.81818
rfingers 7.12502
rthumb 15.1921 -26.6041
lclavicle 7.15625e-015 -3.65764e-014
lhumerus -43.1009 6.895 76.2371
lradius 63.0259
lwrist 20.1329
lhand -14.1577 50.2688
lfingers 7.12502
lthumb 11.977 79.9062
rfemur -25.404 -4.744 19.6025
rtibia 52.7913
rfoot -19.4743 -5.73717
rtoes 15.2526
lfemur -28.298 0.810495 -15.2508
ltibia 45.047
lfoot -7.70953 3.02051
ltoes -28.8117
290
root 8.75365 17.9161 36.2447 151.553 -105.223 -147.94
lowerback 35.556 1.04133 0.0963978
upperback 7.41531 0.882072 2.31335
thorax -9.62389 0.0907931 2.12469
lowerneck -10.9671 -2.62448 -2.84154
upperneck 3.79106 -2.7894 -6.74323
head 3.11533 -1.76622 -1.89636
rclavicle -2.78299e-014 1.90833e-014
rhumerus -24.9814 -26.2903 -55.605
rradius 90.1897
rwrist -10.8442
rhand -11.602 3.09844
rfingers 7.12502
rthumb 14.4405 -26.3792
lclavicle -2.78299e-014 1.90833e-014
lhumerus -43.1536 7.14725 76.2736
lradius 63.9306
lwrist 19.8689
lhand -14.4705 49.957
lfingers 7.12502
lthumb 11.6755 79.6116
rfemur -25.0207 -2.68693 19.4819
rtibia 52.7884
rfoot -19.8313 -9.67527
rtoes 6.31499
lfemur -27.9431 0.731363 -13.9397
ltibia 44.9112
lfoot -7.07305 3.42532
ltoes -26.7534
291
root 8.79377 17.8626 36.4251 150.873 -104.493 -147.806
lowerback 36.352 1.2462 0.222329
upperback 7.44065 1.1672 2.37189
thorax -9.89479 0.205335 2.00999
lowerneck -10.9664 -2.41787 -2.85157
upperneck 3.78982 -2.4909 -7.19262
head 3.11952 -1.64052 -2.02834
rclavicle -2.8625e-014 9.54166e-015
rhumerus -24.196 -25.1141 -56.8824
rradius 91.4888
rwrist -9.61817
rhand -12.0838 3.53136
rfingers 7.12502
rthumb 13.9762 -25.9788
lclavicle -2.8625e-014 9.54166e-015
lhumerus -43.1491 7.58853 76.3904
lradius 64.9077
lwrist 19.5328
lhand -14.1623 50.0556
lfingers 7.12502
lthumb 11.9726 79.6932
rfemur -24.6002 -1.51353 19.1818
rtibia 53.0609
rfoot -21.092 -9.40907
rtoes 9.80415
lfemur -27.2675 0.841057 -12.3941
ltibia 44.6335
lfoot -6.19433 3.89331
ltoes -25.6416
292
root 8.82968 17.7931 36.6108 152.126 -104.311 -149.21
lowerback 36.4507 1.13327 0.547081
upperback 7.5076 1.15566 2.56976
thorax -9.85322 0.186787 2.05529
lowerneck -11.0639 -2.2091 -2.62373
upperneck 3.78943 -2.20786 -7.83277
head 3.14178 -1.52934 -2.27213
rclavicle 1.74931e-014 -1.59028e-015
rhumerus -23.0692 -23.6618 -58.2175
rradius 92.5684
rwrist -8.18584
rhand -12.8264 3.52052
rfingers 7.12502
rthumb 13.2605 -26.0377
lclavicle 1.74931e-014 -1.59028e-015
lhumerus -43.1683 8.288 76.6349
lradius 66.0294
lwrist 19.2396
lhand -13.9446 50.4126
lfingers 7.12502
lthumb 12.1825 80.0379
rfemur -24.6527 -1.10267 19.0071
rtibia 53.3907
rfoot -21.7307 -9.94983
rtoes 8.69601
lfemur -27.2894 0.451161 -10.7602
ltibia 44.3614
lfoot -5.14745 3.97512
ltoes -23.6718
293
root 8.86452 17.7453 36.7893 154.247 -104.425 -151.341
lowerback 36.3448 0.808896 1.10445
upperback 7.5611 0.953375 2.61441
thorax -9.7359 0.082476 1.88874
lowerneck -11.3162 -1.86926 -2.41468
upperneck 3.94589 -1.72916 -8.30777
head 3.25948 -1.32114 -2.45431
rclavicle 7.95139e-016 -1.59028e-015
rhumerus -21.9162 -22.5278 -59.8766
rradius 93.2897
rwrist -6.66698
rhand -13.6181 3.83136
rfingers 7.12502
rthumb 12.4973 -25.7749
lclavicle 7.95139e-016 -1.59028e-015
lhumerus -43.1439 8.75764 76.6715
lradius 67.159
lwrist 19.1741
lhand -14.4522 50.6912
lfingers 7.12502
lthumb 11.693 80.3449
rfemur -24.8514 -0.837782 18.8408
rtibia 53.8939
rfoot -22.4735 -10.3102
rtoes 9.53444
lfemur -27.4896 -0.0408996 -9.10429
ltibia 43.9229
lfoot -4.06956 3.75596
ltoes -21.3867
294
root 8.90092 17.6783 36.9739 155.918 -104.395 -153.12
lowerback 36.4705 0.522208 1.71545
upperback 7.61519 0.799063 2.51729
thorax -9.6991 -0.00236852 1.52426
lowerneck -11.8567 -1.63131 -2.47006
upperneck 4.3463 -1.3374 -8.27814
head 3.51954 -1.15088 -2.43304
rclavicle 4.13472e-014 2.06736e-014
rhumerus -20.8865 -21.5189 -61.7707
rradius 93.7462
rwrist -5.25323
rhand -14.7355 4.19416
rfingers 7.12502
rthumb 11.4199 -25.4748
lclavicle 4.13472e-014 2.06736e-014
lhumerus -42.9802 9.10333 76.5669
lradius 68.1421
lwrist 19.071
lhand -14.6693 51.0794
lfingers 7.12502
lthumb 11.4836 80.7448
rfemur -25.179 -1.09856 18.8973
rtibia 54.4886
rfoot -21.705 -12.8684
rtoes -3.11124
lfemur -27.5718 -0.450759 -7.49492
ltibia 43.5175
lfoot -2.88853 3.69771
ltoes -20.0157
295
root 8.93911 17.6288 37.1559 156.044 -104.527 -153.381
lowerback 36.6693 0.327287 1.82968
upperback 7.68286 0.583244 2.46724
thorax -9.6871 -0.108281 1.49677
lowerneck -12.1788 -1.43404 -2.81407
upperneck 4.61438 -0.985265 -8.18598
head 3.69027 -0.995855 -2.32924
rclavicle -3.81667e-014 7.95139e-015
rhumerus -19.6944 -20.5559 -63.7262
rradius 93.775
rwrist -3.49704
rhand -15.9376 4.60003
rfingers 7.12502
rthumb 10.2603 -25.1297
lclavicle -3.81667e-014 7.95139e-015
lhumerus -42.8516 9.67706 76.7814
lradius 69.0324
lwrist 18.9659
lhand -14.4181 51.2016
lfingers 7.12502
lthumb 11.726 80.8534
rfemur -25.4203 -1.07082 18.0686
rtibia 55.2542
rfoot -22.87 -11.8467
rtoes 1.57497
lfemur -27.4156 -0.91566 -6.39892
ltibia 42.8233
lfoot -1.59093 3.65403
ltoes -18.3105
296
root 8.98344 17.5557 37.3453 155.666 -104.844 -152.994
lowerback 36.7868 0.148211 1.63141
upperback 7.71001 0.28556 2.47507
thorax -9.69735 -0.24401 1.72784
lowerneck -12.3247 -1.1922 -2.97604
upperneck 4.70254 -0.609925 -8.35219
head 3.76402 -0.830028 -2.33689
rclavicle -1.11319e-014 -1.59028e-014
rhumerus -17.9929 -20.6532 -66.066
rradius 93.1288
rwrist -1.13496
rhand -16.2871 5.62342
rfingers 7.12502
rthumb 9.92315 -24.1227
lclavicle -1.11319e-014 -1.59028e-014
lhumerus -42.642 10.1149 77.1628
lradius 69.8313
lwrist 19.6587
lhand -13.7672 51.3708
lfingers 7.12502
lthumb 12.3536 80.9859
rfemur -25.8781 -1.96363 17.4236
rtibia 56.0075
rfoot -21.3929 -14.757
rtoes -14.6803
lfemur -27.4982 -1.28207 -5.57365
ltibia 42.1173
lfoot -0.419413 3.36662
ltoes -18.3191
297
root 9.01906 17.5204 37.5297 154.452 -104.865 -152.046
lowerback 37.0941 0.241909 1.29559
upperback 7.85874 0.262887 2.52114
thorax -9.64543 -0.259816 1.96472
lowerneck -12.5208 -1.05983 -2.87767
upperneck 5.07031 -0.38426 -8.875
head 3.55456 -0.775961 -2.28611
rclavicle 1.35174e-014 -1.59028e-015
rhumerus -16.9246 -19.624 -67.6272
rradius 92.6599
rwrist 0.413607
rhand -17.426 6.53258
rfingers 7.12502
rthumb 8.82422 -23.2629
lclavicle 1.35174e-014 -1.59028e-015
lhumerus -42.208 10.4502 77.738
lradius 70.5619
lwrist 20.3591
lhand -16.9688 52.2001
lfingers 7.12502
lthumb 9.26549 81.9765
rfemur -25.8579 -1.32502 16.2505
rtibia 56.7639
rfoot -23.2471 -13.3783
rtoes -6.65426
lfemur -26.927 -1.8264 -4.7799
ltibia 41.1561
lfoot 0.776002 3.24047
ltoes -19.0329
298
root 9.05201 17.4724 37.7093 153.805 -104.744 -151.693
lowerback 37.3754 0.40142 1.09966
upperback 8.01584 0.368269 2.54441
thorax -9.5746 -0.219552 2.0522
lowerneck -12.5177 -0.986746 -2.6033
upperneck 5.02002 -0.311458 -9.22253
head 3.54171 -0.75166 -2.4319
rclavicle 1.59028e-014 -1.74931e-014
rhumerus -15.9323 -18.4058 -69.1535
rradius 91.7191
rwrist 1.61693
rhand -19.0913 7.36255
rfingers 7.12502
rthumb 7.21704 -22.4944
lclavicle 1.59028e-014 -1.74931e-014
lhumerus -41.6468 10.602 78.2686
lradius 71.1689
lwrist 20.6421
lhand -18.5999 52.7708
lfingers 7.12502
lthumb 7.69131 82.6109
rfemur -25.7774 -1.1409 15.5554
rtibia 57.308
rfoot -23.6899 -13.8538
rtoes -8.33431
lfemur -26.3259 -2.33421 -3.75224
ltibia 40.1968
lfoot 2.03845 3.38298
ltoes -18.3616
299
root 9.08629 17.4233 37.8924 153.573 -104.731 -151.707
lowerback 37.5313 0.467857 1.17365
upperback 8.17361 0.449175 2.471
thorax -9.45147 -0.190984 1.90263
lowerneck -12.4323 -0.972291 -2.61903
upperneck 4.99189 -0.290025 -9.33639
head 3.52069 -0.744745 -2.46178
rclavicle 1.11319e-014 7.95139e-015
rhumerus -15.1773 -17.4624 -70.454
rradius 90.398
rwrist 2.13531
rhand -21.1849 7.9605
rfingers 7.12502
rthumb 5.19587 -21.9558
lclavicle 1.11319e-014 7.95139e-015
lhumerus -40.9139 10.4022 78.828
lradius 71.6635
lwrist 20.9967
lhand -19.0627 53.3106
lfingers 7.12502
lthumb 7.24464 83.1666
rfemur -25.708 -1.03473 14.8094
rtibia 57.755
rfoot -24.4919 -13.4969
rtoes -6.89663
lfemur -25.7468 -2.95808 -2.71857
ltibia 39.0953
lfoot 3.29653 4.02846
ltoes -18.6516
300
root 9.11947 17.3813 38.0809 153.472 -104.529 -151.91
lowerback 37.8038 0.652542 1.09829
upperback 8.28918 0.652627 2.66214
thorax -9.42741 -0.108814 2.06712
lowerneck -12.4981 -1.26394 -2.93372
upperneck 5.3749 -0.619274 -8.98331
head 3.63689 -0.91169 -2.32892
rclavicle 1.27222e-014 -1.90833e-014
rhumerus -14.8806 -16.5908 -70.7944
rradius 89.1515
rwrist 2.27293
rhand -22.8475 8.68242
rfingers 7.12502
rthumb 3.59038 -21.2671
lclavicle 1.27222e-014 -1.90833e-014
lhumerus -40.1659 10.3515 79.6381
lradius 71.9381
lwrist 21.2506
lhand -18.8199 53.6679
lfingers 7.12502
lthumb 7.479 83.5157
rfemur -25.449 -0.561364 14.1039
rtibia 58.0738
rfoot -25.8559 -12.4138
rtoes -0.982456
lfemur -25.028 -3.45125 -1.60753
ltibia 37.9984
lfoot 4.43371 4.87242
ltoes -19.8002
